<?xml version="1.0" encoding="UTF-8" standalone="no"?>
<!-- Created with Inkscape (http://www.inkscape.org/) -->

<svg
   xmlns:dc="http://purl.org/dc/elements/1.1/"
   xmlns:cc="http://creativecommons.org/ns#"
   xmlns:rdf="http://www.w3.org/1999/02/22-rdf-syntax-ns#"
   xmlns:svg="http://www.w3.org/2000/svg"
   xmlns="http://www.w3.org/2000/svg"
   version="1.1"
   width="622.88129"
   height="45.182201"
   viewBox="0 0 498.30503 36.145761"
   id="svg2">
  <defs
     id="defs5477" />
  <g
     transform="translate(-129.63354,-640.21736)"
     id="misc2svg">
    <path
       d="m 132.61652,667.10404 c 0,2.18298 0.32746,5.7849 -2.18298,6.71269 l 0,0.16374 9.38684,0 0,-0.16374 c -2.51044,-0.92779 -2.18298,-4.47514 -2.18298,-6.71269 l 0,-18.4462 c 0,-2.18298 -0.32746,-5.83947 2.18298,-6.71266 l 0,-0.16374 -9.38684,0 0,0.16374 c 2.51044,0.92776 2.18298,4.52968 2.18298,6.71266 l 0,18.4462 z m 5.62119,-9.82341 10.86034,14.5714 c 0.87319,1.20065 3.16532,2.12841 5.56661,2.12841 l 4.58426,0 0,-0.16374 c -2.51041,-1.20064 -4.36597,-2.56501 -5.89404,-4.58428 l -9.87801,-12.93418 11.24237,-14.46226 0,-0.0545 -8.78651,0 0,0.16375 c 3.27446,1.4735 0.32746,4.52968 -1.25522,6.8218 l -6.4398,8.51365 z m 0,0"
       id="path2415"
       style="fill:#000000;fill-opacity:1;fill-rule:nonzero;stroke:none" />
    <path
       d="m 161.90124,667.15861 c 0,2.18298 0.273,5.78493 -2.18298,6.65812 l 0,0.16374 9.2777,0 0,-0.16374 c -2.4013,-0.92779 -2.12841,-4.47514 -2.12841,-6.65812 l 0,-18.4462 c 0,-2.23755 -0.273,-5.83947 2.12841,-6.76723 l 0,-0.16374 -9.2777,0 0,0.16374 c 2.51044,0.92776 2.18298,4.52968 2.18298,6.76723 l 0,18.4462 z m 0,0"
       id="path2417"
       style="fill:#000000;fill-opacity:1;fill-rule:nonzero;stroke:none" />
    <path
       d="m 172.5433,641.78144 0,0.16374 c 2.51041,0.92776 2.12841,4.52968 2.12841,6.76723 l 0,18.4462 c 0,2.18298 0.382,5.78493 -2.12841,6.65812 l 0,0.16374 9.33224,0 0,-0.16374 c -2.51043,-0.87319 -2.18298,-4.42056 -2.18298,-6.65812 l 0,-21.93897 c 1.09151,-0.16374 2.18298,-0.32745 3.32906,-0.38202 3.27446,-0.16375 6.27607,1.91012 6.27607,5.4029 0,4.63882 -4.52968,6.43977 -8.45905,7.04011 l 4.52968,6.87638 5.94863,7.36757 c 1.47351,1.80095 3.05618,2.45586 5.67576,2.45586 l 4.47511,0 c -2.78329,-1.74638 -5.83947,-4.31139 -7.91331,-6.82183 l -7.04012,-8.89564 c 4.03851,-0.92777 7.80417,-4.25683 7.80417,-8.56822 0,-4.47511 -3.60194,-7.91331 -10.15089,-7.91331 l -11.62437,0 z m 0,0"
       id="path2419"
       style="fill:#000000;fill-opacity:1;fill-rule:nonzero;stroke:none" />
    <path
       d="m 201.07487,667.10404 c 0,2.18298 0.32745,5.7849 -2.18299,6.71269 l 0,0.16374 9.38685,0 0,-0.16374 c -2.51044,-0.92779 -2.18299,-4.47514 -2.18299,-6.71269 l 0,-18.4462 c 0,-2.18298 -0.32745,-5.83947 2.18299,-6.71266 l 0,-0.16374 -9.38685,0 0,0.16374 c 2.51044,0.92776 2.18299,4.52968 2.18299,6.71266 l 0,18.4462 z m 5.62118,-9.82341 10.86035,14.5714 c 0.87319,1.20065 3.16531,2.12841 5.56661,2.12841 l 4.58425,0 0,-0.16374 c -2.51041,-1.20064 -4.36597,-2.56501 -5.89404,-4.58428 l -9.87801,-12.93418 11.24237,-14.46226 0,-0.0545 -8.7865,0 0,0.16375 c 3.27446,1.4735 0.32745,4.52968 -1.25522,6.8218 l -6.43981,8.51365 z m 0,0"
       id="path2421"
       style="fill:#000000;fill-opacity:1;fill-rule:nonzero;stroke:none" />
    <path
       d="m 235.65332,669.9965 0,-21.28409 c 0,-2.23755 -0.32743,-5.83947 2.18298,-6.76723 l 0,-0.16374 -9.33224,0 0,0.16374 c 2.45586,0.92776 2.18298,4.52968 2.18298,6.76723 l 0,18.4462 c 0,2.18298 0.273,5.78493 -2.18298,6.65812 l 0,0.16374 20.08344,0 2.51044,-6.49438 -0.10926,0 c -2.45586,2.01927 -5.34832,3.16532 -8.67736,2.94704 l -6.65811,-0.4366 z m 0,0"
       id="path2423"
       style="fill:#000000;fill-opacity:1;fill-rule:nonzero;stroke:none" />
    <path
       d="m 274.93611,661.91945 2.61958,6.87641 c 1.30979,3.4382 1.74639,3.98394 -0.65491,5.02087 l 0,0.16374 9.98715,0 0,-0.16374 c -2.78329,-1.41896 -3.65648,-4.14768 -4.74799,-6.93097 l -10.20543,-25.10432 -7.69503,0 0,0.16374 c 2.34673,0.76402 1.41896,2.78329 0.70948,4.52968 l -8.18619,20.4109 c -1.03691,2.78329 -1.9101,5.51201 -4.74799,6.93097 l 0,0.16374 9.00481,0 0,-0.16374 c -2.34669,-0.87319 -1.9647,-2.29215 -0.98233,-5.02087 l 2.56501,-6.87641 12.33384,0 z m -1.41893,-3.65648 -9.65972,0 4.85716,-12.27928 4.80256,12.27928 z m 0,0"
       id="path2425"
       style="fill:#000000;fill-opacity:1;fill-rule:nonzero;stroke:none" />
    <path
       d="m 294.7576,648.71241 16.75438,21.28409 c 2.12841,2.7833 3.65651,4.36597 7.14929,5.56662 l 0,-27.45102 c 0,-2.72875 0,-4.69342 2.51041,-6.16692 l 0,-0.16374 -8.56819,0 0,0.16374 c 2.565,1.4735 2.5104,3.43817 2.5104,6.16692 l 0,18.55534 -17.90046,-22.59388 -0.65488,-0.98233 c -0.38202,-0.38203 -0.54573,-0.65488 -0.76405,-1.25522 l 0,-0.0545 -7.14926,0 0,0.16374 c 2.56501,1.47351 2.56501,3.43818 2.56501,6.16693 l 0,19.53767 c 0,2.72875 0,4.69342 -2.56501,6.16695 l 0,0.16375 8.62279,0 0,-0.16375 c -2.565,-1.47353 -2.51043,-3.4382 -2.51043,-6.16695 l 0,-18.93736 z m 0,0"
       id="path2427"
       style="fill:#000000;fill-opacity:1;fill-rule:nonzero;stroke:none" />
    <path
       d="m 326.14888,666.94033 c 0,2.89243 0.27299,5.23916 -2.18299,6.8764 l 0,0.16374 11.73354,0 c 10.96949,0 18.33706,-6.76726 18.33706,-16.37238 0,-9.71427 -6.93098,-15.82662 -18.06418,-15.82662 l -12.00642,0 0,0.16374 c 2.51044,0.76402 2.18299,4.31136 2.18299,6.54895 l 0,18.4462 z m 4.9663,-21.06578 c 1.4735,-0.32746 2.94701,-0.54577 4.42054,-0.54577 8.13159,0 12.93415,4.3114 12.93415,12.87962 0,8.45904 -6.49435,12.2247 -13.80735,12.2247 -1.20064,0 -2.34672,-0.0545 -3.54734,-0.32745 l 0,-24.2311 z m 0,0"
       id="path2429"
       style="fill:#000000;fill-opacity:1;fill-rule:nonzero;stroke:none" />
    <path
       d="m 409.25504,673.98044 0,-0.16374 c -9.2231,-4.25682 -16.42693,-11.8427 -23.68535,-18.82825 2.23755,-1.96467 4.20222,-3.98394 4.20222,-7.20383 0,-4.09308 -3.11075,-6.76726 -7.04009,-6.76726 -3.76565,0 -7.58585,2.72875 -7.58585,6.82183 0,2.72872 2.07381,5.02088 3.87479,6.87641 -3.54737,2.83786 -6.71271,5.73032 -6.71271,10.58746 0,6.05778 5.51204,9.33224 11.02408,9.33224 4.69339,0 7.695,-1.74639 10.20544,-5.73033 1.4735,1.47353 4.03851,3.38363 5.78489,4.31139 1.30979,0.65491 2.89247,0.76406 4.58428,0.76406 l 5.3483,0 z m -26.52322,-21.8844 c -1.30982,-1.14607 -3.38363,-3.11074 -3.38363,-5.07544 0,-1.85553 1.4735,-2.78329 3.21989,-2.78329 1.80096,0 3.38363,1.14604 3.38363,3.0016 0,2.01924 -1.63724,3.76563 -3.21989,4.85713 z m 8.84108,15.06257 c -1.74639,2.29215 -4.20223,4.25683 -7.20386,4.25683 -3.76563,0 -6.82183,-2.40127 -6.82183,-6.43981 0,-3.00161 1.96469,-5.51202 4.36596,-7.20383 l 9.65973,9.38681 z m 0,0"
       id="path2433"
       style="fill:#000000;fill-opacity:1;fill-rule:nonzero;stroke:none" />
    <path
       d="m 431.48872,658.26297 3.65651,0 c 1.47354,0 3.54735,-0.0545 4.31137,1.36436 l 0.16374,0 0,-5.18459 -0.16374,0 c -0.54574,0.32745 -1.36436,0.32745 -2.12838,0.32745 l -5.8395,0 0,-9.11395 c 1.58267,-0.273 3.27449,-0.32746 5.02088,-0.32746 2.23758,0 4.25682,0.21823 5.73035,1.9647 l 0.16374,0 0,-5.73033 -0.16374,0 c -0.60037,0.32743 -1.41896,0.21823 -2.29213,0.21823 l -15.60836,0 0,0.16374 c 2.45587,0.92777 2.18301,4.52968 2.18301,6.76724 l 0,18.4462 c 0,2.18298 0.273,5.78492 -2.18301,6.65811 l 0,0.16375 20.3563,0 2.23761,-6.38524 -0.16374,0 c -2.45587,2.12841 -5.83947,3.16535 -9.05942,2.83789 l -6.22149,-0.54574 0,-11.62439 z m 0,0"
       id="path2437"
       style="fill:#000000;fill-opacity:1;fill-rule:nonzero;stroke:none" />
    <path
       d="m 456.96417,669.9965 0,-21.28409 c 0,-2.23755 -0.32749,-5.83947 2.18295,-6.76723 l 0,-0.16374 -9.33224,0 0,0.16374 c 2.45587,0.92776 2.18298,4.52968 2.18298,6.76723 l 0,18.4462 c 0,2.18298 0.27272,5.78493 -2.18298,6.65812 l 0,0.16374 20.08347,0 2.51038,-6.49438 -0.10925,0 c -2.45587,2.01927 -5.3483,3.16532 -8.67736,2.94704 l -6.65809,-0.4366 z m 0,0"
       id="path2439"
       style="fill:#000000;fill-opacity:1;fill-rule:nonzero;stroke:none" />
    <path
       d="m 482.39591,669.9965 0,-21.28409 c 0,-2.23755 -0.32748,-5.83947 2.18295,-6.76723 l 0,-0.16374 -9.33224,0 0,0.16374 c 2.45587,0.92776 2.18299,4.52968 2.18299,6.76723 l 0,18.4462 c 0,2.18298 0.27299,5.78493 -2.18299,6.65812 l 0,0.16374 20.08347,0 2.51044,-6.49438 -0.10925,0 c -2.45584,2.01927 -5.3483,3.16532 -8.67736,2.94704 l -6.65809,-0.4366 z m 0,0"
       id="path2441"
       style="fill:#000000;fill-opacity:1;fill-rule:nonzero;stroke:none" />
    <path
       d="m 502.53392,667.15861 c 0,2.18298 0.273,5.78493 -2.18301,6.65812 l 0,0.16374 9.2777,0 0,-0.16374 c -2.40127,-0.92779 -2.12841,-4.47514 -2.12841,-6.65812 l 0,-18.4462 c 0,-2.23755 -0.273,-5.83947 2.12841,-6.76723 l 0,-0.16374 -9.2777,0 0,0.16374 c 2.51044,0.92776 2.18301,4.52968 2.18301,6.76723 l 0,18.4462 z m 0,0"
       id="path2443"
       style="fill:#000000;fill-opacity:1;fill-rule:nonzero;stroke:none" />
    <path
       d="m 532.15702,642.10889 c -2.34672,-0.76405 -4.80259,-1.0915 -7.25845,-1.0915 -5.94861,0 -12.27928,2.34672 -12.27928,8.51365 0,10.36917 16.80898,9.00481 16.80898,16.64524 0,3.38363 -4.20225,5.07544 -6.98554,5.07544 -3.82023,0 -7.8042,-1.58267 -10.6966,-4.09311 l 1.41893,6.11235 c 2.78326,1.03694 5.7849,1.47353 8.73193,1.47353 7.64043,0 13.09787,-4.85713 13.09787,-10.09629 0,-9.05938 -16.80893,-8.95024 -16.80893,-15.6629 0,-3.38363 3.54732,-4.42054 6.33061,-4.42054 2.72872,0 5.7849,1.09148 7.64048,3.05618 l 0,-5.51205 z m 0,0"
       id="path2445"
       style="fill:#000000;fill-opacity:1;fill-rule:nonzero;stroke:none" />
    <path
       d="m 560.29567,669.9965 0,-21.28409 c 0,-2.23755 -0.32746,-5.83947 2.18298,-6.76723 l 0,-0.16374 -9.33227,0 0,0.16374 c 2.45584,0.92776 2.18298,4.52968 2.18298,6.76723 l 0,18.4462 c 0,2.18298 0.273,5.78493 -2.18298,6.65812 l 0,0.16374 20.08341,0 2.51044,-6.49438 -0.10925,0 c -2.45587,2.01927 -5.3483,3.16532 -8.67736,2.94704 l -6.65809,-0.4366 z m 0,0"
       id="path2449"
       style="fill:#000000;fill-opacity:1;fill-rule:nonzero;stroke:none" />
    <path
       d="m 585.71648,669.9965 0,-21.28409 c 0,-2.23755 -0.32745,-5.83947 2.18296,-6.76723 l 0,-0.16374 -9.33224,0 0,0.16374 c 2.45589,0.92776 2.18298,4.52968 2.18298,6.76723 l 0,18.4462 c 0,2.18298 0.273,5.78493 -2.18298,6.65812 l 0,0.16374 20.08347,0 2.51044,-6.49438 -0.10926,0 c -2.45586,2.01927 -5.34833,3.16532 -8.67736,2.94704 l -6.65812,-0.4366 z m 0,0"
       id="path2451"
       style="fill:#000000;fill-opacity:1;fill-rule:nonzero;stroke:none" />
    <path
       d="m 604.05351,641.78144 0,0.16374 c 2.45587,0.98234 2.18301,4.52968 2.18301,6.76723 l 0,18.4462 c 0,2.18298 0.273,5.78493 -2.23758,6.65812 l 0,0.16374 9.7689,0 0,-0.16374 c -2.61961,-1.47353 -2.56504,-3.38363 -2.56504,-6.16695 l 0,-22.04811 c 1.14605,-0.16375 2.23758,-0.273 3.4382,-0.273 3.92937,0 6.931,1.69182 6.931,6.00321 0,4.69342 -4.52973,7.313 -8.73193,7.53128 1.09145,0.54577 2.3467,0.70948 3.54732,0.70948 5.51201,0 10.75117,-3.60191 10.75117,-9.22309 0,-5.45748 -4.80253,-8.56822 -11.18774,-8.56822 l -11.89731,0 z m 0,0"
       id="path2453"
       style="fill:#000000;fill-opacity:1;fill-rule:nonzero;stroke:none" />
  </g>
</svg>
